<?xml version="1.0" encoding="UTF-8" standalone="no"?>
<!DOCTYPE svg PUBLIC "-//W3C//DTD SVG 1.1//EN"
 "http://www.w3.org/Graphics/SVG/1.1/DTD/svg11.dtd">
<!-- Generated by graphviz version 2.40.1 (20161225.0304)
 -->
<!-- Title: dependencies Pages: 1 -->
<svg width="1171pt" height="211pt"
 viewBox="0.00 0.00 1171.00 211.00" xmlns="http://www.w3.org/2000/svg" xmlns:xlink="http://www.w3.org/1999/xlink">
<g id="graph0" class="graph" transform="scale(1 1) rotate(0) translate(4 207)">
<title>dependencies</title>
<polygon fill="#ffffff" stroke="transparent" points="-4,4 -4,-207 1167,-207 1167,4 -4,4"/>
<text text-anchor="start" x="560.5091" y="-42.4" font-family="sans-serif" font-weight="bold" font-size="14.00" fill="#000000">Legend</text>
<polygon fill="#ffffb3" stroke="transparent" points="347.5,-10 347.5,-30 367.5,-30 367.5,-10 347.5,-10"/>
<text text-anchor="start" x="371.129" y="-15.4" font-family="sans-serif" font-size="14.00" fill="#000000"> &#160;Declarations</text>
<polygon fill="#8dd3c7" stroke="transparent" points="460.5,-10 460.5,-30 480.5,-30 480.5,-10 460.5,-10"/>
<text text-anchor="start" x="484.2251" y="-15.4" font-family="sans-serif" font-size="14.00" fill="#000000"> &#160;Module</text>
<polygon fill="#80b1d3" stroke="transparent" points="546.5,-10 546.5,-30 566.5,-30 566.5,-10 546.5,-10"/>
<text text-anchor="start" x="570.2812" y="-15.4" font-family="sans-serif" font-size="14.00" fill="#000000"> &#160;Bootstrap</text>
<polygon fill="#fdb462" stroke="transparent" points="643.5,-10 643.5,-30 663.5,-30 663.5,-10 643.5,-10"/>
<text text-anchor="start" x="667.1732" y="-15.4" font-family="sans-serif" font-size="14.00" fill="#000000"> &#160;Providers</text>
<polygon fill="#fb8072" stroke="transparent" points="739.5,-10 739.5,-30 759.5,-30 759.5,-10 739.5,-10"/>
<text text-anchor="start" x="763.2258" y="-15.4" font-family="sans-serif" font-size="14.00" fill="#000000"> &#160;Exports</text>
<g id="clust1" class="cluster">
<title>cluster_PrestationsModule</title>
<polygon fill="none" stroke="#000000" stroke-dasharray="1,5" points="8,-70 8,-195 1155,-195 1155,-70 8,-70"/>
</g>
<g id="clust2" class="cluster">
<title>cluster_PrestationsModule_declarations</title>
<polygon fill="none" stroke="#000000" points="322,-78 322,-130 1147,-130 1147,-78 322,-78"/>
</g>
<g id="clust8" class="cluster">
<title>cluster_PrestationsModule_imports</title>
<polygon fill="none" stroke="#000000" points="16,-78 16,-130 314,-130 314,-78 16,-78"/>
</g>
<!-- AddPrestationComponent -->
<g id="node1" class="node">
<title>AddPrestationComponent</title>
<polygon fill="#ffffb3" stroke="#000000" points="1138.9284,-122 977.0716,-122 977.0716,-86 1138.9284,-86 1138.9284,-122"/>
<text text-anchor="middle" x="1058" y="-99.8" font-family="Times,serif" font-size="14.00" fill="#000000">AddPrestationComponent</text>
</g>
<!-- PrestationsModule -->
<g id="node6" class="node">
<title>PrestationsModule</title>
<polygon fill="#8dd3c7" stroke="#000000" points="628.4832,-187 625.4832,-191 604.4832,-191 601.4832,-187 507.5168,-187 507.5168,-151 628.4832,-151 628.4832,-187"/>
<text text-anchor="middle" x="568" y="-164.8" font-family="Times,serif" font-size="14.00" fill="#000000">PrestationsModule</text>
</g>
<!-- AddPrestationComponent&#45;&gt;PrestationsModule -->
<g id="edge1" class="edge">
<title>AddPrestationComponent&#45;&gt;PrestationsModule</title>
<path fill="none" stroke="#000000" d="M1058,-122.2921C1058,-144.2057 1058,-178 1058,-178 1058,-178 638.5751,-178 638.5751,-178"/>
<polygon fill="#000000" stroke="#000000" points="638.5751,-174.5001 628.5751,-178 638.575,-181.5001 638.5751,-174.5001"/>
</g>
<!-- FormComponent -->
<g id="node2" class="node">
<title>FormComponent</title>
<polygon fill="#ffffb3" stroke="#000000" points="958.6667,-122 847.3333,-122 847.3333,-86 958.6667,-86 958.6667,-122"/>
<text text-anchor="middle" x="903" y="-99.8" font-family="Times,serif" font-size="14.00" fill="#000000">FormComponent</text>
</g>
<!-- FormComponent&#45;&gt;PrestationsModule -->
<g id="edge2" class="edge">
<title>FormComponent&#45;&gt;PrestationsModule</title>
<path fill="none" stroke="#000000" d="M903,-122.1061C903,-141.3391 903,-169 903,-169 903,-169 638.666,-169 638.666,-169"/>
<polygon fill="#000000" stroke="#000000" points="638.666,-165.5001 628.666,-169 638.6659,-172.5001 638.666,-165.5001"/>
</g>
<!-- FormReactiveComponent -->
<g id="node3" class="node">
<title>FormReactiveComponent</title>
<polygon fill="#ffffb3" stroke="#000000" points="829.1428,-122 668.8572,-122 668.8572,-86 829.1428,-86 829.1428,-122"/>
<text text-anchor="middle" x="749" y="-99.8" font-family="Times,serif" font-size="14.00" fill="#000000">FormReactiveComponent</text>
</g>
<!-- FormReactiveComponent&#45;&gt;PrestationsModule -->
<g id="edge3" class="edge">
<title>FormReactiveComponent&#45;&gt;PrestationsModule</title>
<path fill="none" stroke="#000000" d="M749,-122.027C749,-138.3976 749,-160 749,-160 749,-160 638.522,-160 638.522,-160"/>
<polygon fill="#000000" stroke="#000000" points="638.5221,-156.5001 628.522,-160 638.522,-163.5001 638.5221,-156.5001"/>
</g>
<!-- ListPrestationsComponent -->
<g id="node4" class="node">
<title>ListPrestationsComponent</title>
<polygon fill="#ffffb3" stroke="#000000" points="650.0448,-122 485.9552,-122 485.9552,-86 650.0448,-86 650.0448,-122"/>
<text text-anchor="middle" x="568" y="-99.8" font-family="Times,serif" font-size="14.00" fill="#000000">ListPrestationsComponent</text>
</g>
<!-- ListPrestationsComponent&#45;&gt;PrestationsModule -->
<g id="edge4" class="edge">
<title>ListPrestationsComponent&#45;&gt;PrestationsModule</title>
<path fill="none" stroke="#000000" d="M568,-122.1061C568,-122.1061 568,-140.991 568,-140.991"/>
<polygon fill="#000000" stroke="#000000" points="564.5001,-140.9909 568,-150.991 571.5001,-140.991 564.5001,-140.9909"/>
</g>
<!-- PrestationComponent -->
<g id="node5" class="node">
<title>PrestationComponent</title>
<polygon fill="#ffffb3" stroke="#000000" points="467.8216,-122 330.1784,-122 330.1784,-86 467.8216,-86 467.8216,-122"/>
<text text-anchor="middle" x="399" y="-99.8" font-family="Times,serif" font-size="14.00" fill="#000000">PrestationComponent</text>
</g>
<!-- PrestationComponent&#45;&gt;PrestationsModule -->
<g id="edge5" class="edge">
<title>PrestationComponent&#45;&gt;PrestationsModule</title>
<path fill="none" stroke="#000000" d="M399,-122.027C399,-138.3976 399,-160 399,-160 399,-160 497.4645,-160 497.4645,-160"/>
<polygon fill="#000000" stroke="#000000" points="497.4645,-163.5001 507.4645,-160 497.4644,-156.5001 497.4645,-163.5001"/>
</g>
<!-- PrestationsRoutingModule -->
<g id="node7" class="node">
<title>PrestationsRoutingModule</title>
<polygon fill="#8dd3c7" stroke="#000000" points="306.101,-122 303.101,-126 282.101,-126 279.101,-122 139.899,-122 139.899,-86 306.101,-86 306.101,-122"/>
<text text-anchor="middle" x="223" y="-99.8" font-family="Times,serif" font-size="14.00" fill="#000000">PrestationsRoutingModule</text>
</g>
<!-- PrestationsRoutingModule&#45;&gt;PrestationsModule -->
<g id="edge6" class="edge">
<title>PrestationsRoutingModule&#45;&gt;PrestationsModule</title>
<path fill="none" stroke="#000000" d="M223,-122.1061C223,-141.3391 223,-169 223,-169 223,-169 497.5108,-169 497.5108,-169"/>
<polygon fill="#000000" stroke="#000000" points="497.5108,-172.5001 507.5108,-169 497.5108,-165.5001 497.5108,-172.5001"/>
</g>
<!-- SharedModule -->
<g id="node8" class="node">
<title>SharedModule</title>
<polygon fill="#8dd3c7" stroke="#000000" points="122.4231,-122 119.4231,-126 98.4231,-126 95.4231,-122 23.5769,-122 23.5769,-86 122.4231,-86 122.4231,-122"/>
<text text-anchor="middle" x="73" y="-99.8" font-family="Times,serif" font-size="14.00" fill="#000000">SharedModule</text>
</g>
<!-- SharedModule&#45;&gt;PrestationsModule -->
<g id="edge7" class="edge">
<title>SharedModule&#45;&gt;PrestationsModule</title>
<path fill="none" stroke="#000000" d="M73,-122.2921C73,-144.2057 73,-178 73,-178 73,-178 497.3033,-178 497.3033,-178"/>
<polygon fill="#000000" stroke="#000000" points="497.3033,-181.5001 507.3033,-178 497.3032,-174.5001 497.3033,-181.5001"/>
</g>
</g>
</svg>
